<?xml version="1.0" encoding="iso-8859-1"?>
<!-- Generator: Adobe Illustrator 19.0.0, SVG Export Plug-In . SVG Version: 6.00 Build 0)  -->
<svg version="1.1" id="Layer_1" xmlns="http://www.w3.org/2000/svg" xmlns:xlink="http://www.w3.org/1999/xlink" x="0px" y="0px"
	 viewBox="0 0 322.1 322.1" style="enable-background:new 0 0 322.1 322.1;" xml:space="preserve">
<g transform="translate(0 -562.36)">
	<g>
		<g>
			<path d="M258.9,611.16H210c-18.9,0-18.9,28.4,0,28.4h34.6v216.9H76.8v-216.9H112c18.9,0,18.9-28.4,0-28.4H63.2v0.1l0,0
				c-7.9,0-14.2,6.3-14.2,14.2v245.3c0,7.4,6.3,13.7,14.2,13.7h195.7c7.9,0,14.2-6.3,14.2-13.7v-245.4
				C273.1,617.46,266.8,611.16,258.9,611.16z"/>
			<path d="M147.2,784.06l-25.2-24.7c-2.6-2.6-6.3-4.2-10-4.2c-12.6,0-18.9,15.2-10,23.6l48.8,49.4c5.8,5.3,14.7,5.3,19.9,0
				l48.8-49.4c13.6-13.1-6.3-33.1-19.4-19.4l-25.2,24.7v-207.5c0.1-7.9-6.2-14.2-14.1-14.2v0c-7.9,0-14.2,6.3-13.6,14.2V784.06z"/>
		</g>
	</g>
</g>
<g>
</g>
<g>
</g>
<g>
</g>
<g>
</g>
<g>
</g>
<g>
</g>
<g>
</g>
<g>
</g>
<g>
</g>
<g>
</g>
<g>
</g>
<g>
</g>
<g>
</g>
<g>
</g>
<g>
</g>
</svg>
